<svg xmlns="http://www.w3.org/2000/svg" viewBox="0 0 100 100">
  <rect width="100" height="100" rx="22" fill="#0A0A0A"/>
  <!-- V letter -->
  <path d="M16 22 L32 62 L38 62 L26 22 Z" fill="#E5E7EB"/>
  <path d="M38 62 L48 38 L42 38 L32 62 Z" fill="#E5E7EB"/>
  <!-- J letter -->
  <path d="M62 22 L84 22 L84 55 C84 68 74 76 60 76 C54 76 48 74 44 70 L48 62 C51 65 55 67 60 67 C68 67 74 62 74 53 L74 30 L62 30 Z" fill="#E5E7EB"/>
  <!-- Rocket center emblem -->
  <path d="M50 12 C56 28 62 44 62 60 C56 57 44 57 38 60 C38 44 44 28 50 12 Z" fill="#FFFFFF"/>
  <path d="M50 54 C44 64 40 76 43 86 C47 78 53 78 57 86 C60 76 56 64 50 54 Z" fill="#D1D5DB"/>
</svg>
